<svg class="animated" id="freepik_stories-lawyer" xmlns="http://www.w3.org/2000/svg" viewBox="0 0 500 500" version="1.1" xmlns:xlink="http://www.w3.org/1999/xlink" xmlns:svgjs="http://svgjs.com/svgjs"><style>svg#freepik_stories-lawyer:not(.animated) .animable {opacity: 0;}svg#freepik_stories-lawyer.animated #freepik--police-badges--inject-1 {animation: 1.1s 1 forwards cubic-bezier(.36,-0.01,.5,1.38) fadeIn;animation-delay: 0.8s;opacity: 0}svg#freepik_stories-lawyer.animated #freepik--hammer-of-law--inject-1 {animation: 1s 1 forwards cubic-bezier(.36,-0.01,.5,1.38) fadeIn;animation-delay: 1.6s;opacity: 0}svg#freepik_stories-lawyer.animated #freepik--legal-balance--inject-1 {animation: 1s 1 forwards cubic-bezier(.36,-0.01,.5,1.38) fadeIn,1.5s Infinite  linear floating;animation-delay: 0s,3s;}svg#freepik_stories-lawyer.animated #freepik--Paper--inject-1 {animation: 1.8s 1 forwards cubic-bezier(.36,-0.01,.5,1.38) fadeIn;animation-delay: 0s;}            @keyframes fadeIn {                0% {                    opacity: 0;                }                100% {                    opacity: 1;                }            }                    @keyframes floating {                0% {                    opacity: 1;                    transform: translateY(0px);                }                50% {                    transform: translateY(-10px);                }                100% {                    opacity: 1;                    transform: translateY(0px);                }            }        </style><g id="freepik--background-complete--inject-1" class="animable" style="transform-origin: 250px 228.23px;"><rect y="382.4" width="500" height="0.25" style="fill: rgb(235, 235, 235); transform-origin: 250px 382.525px;" id="el31i4mlgy2g8" class="animable"></rect><rect x="416.78" y="398.49" width="33.12" height="0.25" style="fill: rgb(235, 235, 235); transform-origin: 433.34px 398.615px;" id="elqkbsehket2" class="animable"></rect><rect x="322.53" y="401.21" width="8.69" height="0.25" style="fill: rgb(235, 235, 235); transform-origin: 326.875px 401.335px;" id="ellvp41fd4eu" class="animable"></rect><rect x="396.59" y="389.21" width="19.19" height="0.25" style="fill: rgb(235, 235, 235); transform-origin: 406.185px 389.335px;" id="el9r3ypcrosuc" class="animable"></rect><rect x="52.46" y="390.89" width="43.19" height="0.25" style="fill: rgb(235, 235, 235); transform-origin: 74.055px 391.015px;" id="eld6rr36ob9f" class="animable"></rect><rect x="104.56" y="390.89" width="6.33" height="0.25" style="fill: rgb(235, 235, 235); transform-origin: 107.725px 391.015px;" id="ell5nl1lqmihl" class="animable"></rect><rect x="131.47" y="395.11" width="93.68" height="0.25" style="fill: rgb(235, 235, 235); transform-origin: 178.31px 395.235px;" id="elq4qbdruxud" class="animable"></rect><path d="M237,337.8H43.91a5.71,5.71,0,0,1-5.7-5.71V60.66A5.71,5.71,0,0,1,43.91,55H237a5.71,5.71,0,0,1,5.71,5.71V332.09A5.71,5.71,0,0,1,237,337.8ZM43.91,55.2a5.46,5.46,0,0,0-5.45,5.46V332.09a5.46,5.46,0,0,0,5.45,5.46H237a5.47,5.47,0,0,0,5.46-5.46V60.66A5.47,5.47,0,0,0,237,55.2Z" style="fill: rgb(235, 235, 235); transform-origin: 140.46px 196.4px;" id="elpg4cfvk4u4" class="animable"></path><path d="M453.31,337.8H260.21a5.72,5.72,0,0,1-5.71-5.71V60.66A5.72,5.72,0,0,1,260.21,55h193.1A5.71,5.71,0,0,1,459,60.66V332.09A5.71,5.71,0,0,1,453.31,337.8ZM260.21,55.2a5.47,5.47,0,0,0-5.46,5.46V332.09a5.47,5.47,0,0,0,5.46,5.46h193.1a5.47,5.47,0,0,0,5.46-5.46V60.66a5.47,5.47,0,0,0-5.46-5.46Z" style="fill: rgb(235, 235, 235); transform-origin: 356.75px 196.4px;" id="eltso74npp2og" class="animable"></path><rect x="350.92" y="65.82" width="65.31" height="12.7" style="fill: rgb(240, 240, 240); transform-origin: 383.575px 72.17px;" id="elrv8fzd7d4xn" class="animable"></rect><rect x="355.65" y="78.52" width="55.84" height="6.51" style="fill: rgb(224, 224, 224); transform-origin: 383.57px 81.775px;" id="elg9axu2hkkfs" class="animable"></rect><rect x="361.45" y="85.03" width="44.23" height="290.78" style="fill: rgb(240, 240, 240); transform-origin: 383.565px 230.42px;" id="el3gcoayb2r5z" class="animable"></rect><rect x="366.87" y="85.03" width="33.41" height="290.78" style="fill: rgb(224, 224, 224); transform-origin: 383.575px 230.42px;" id="elb2eddpovima" class="animable"></rect><rect x="376.76" y="85.03" width="13.63" height="290.78" style="fill: rgb(240, 240, 240); transform-origin: 383.575px 230.42px;" id="elfg9gcnlzsmq" class="animable"></rect><g id="elqmbnqdmtjhq"><rect x="350.92" y="382.33" width="65.31" height="12.7" style="fill: rgb(240, 240, 240); transform-origin: 383.575px 388.68px; transform: rotate(180deg);" class="animable"></rect></g><g id="elqk8iucl57f"><rect x="355.65" y="375.81" width="55.84" height="6.52" style="fill: rgb(224, 224, 224); transform-origin: 383.57px 379.07px; transform: rotate(180deg);" class="animable"></rect></g><rect x="83.78" y="65.82" width="65.31" height="12.7" style="fill: rgb(240, 240, 240); transform-origin: 116.435px 72.17px;" id="ell2wxfy4fwhb" class="animable"></rect><rect x="88.51" y="78.52" width="55.84" height="6.51" style="fill: rgb(224, 224, 224); transform-origin: 116.43px 81.775px;" id="elyhbsnm3vc2" class="animable"></rect><rect x="94.31" y="85.03" width="44.23" height="290.78" style="fill: rgb(240, 240, 240); transform-origin: 116.425px 230.42px;" id="el8u5e4e572r2" class="animable"></rect><rect x="99.73" y="85.03" width="33.41" height="290.78" style="fill: rgb(224, 224, 224); transform-origin: 116.435px 230.42px;" id="elm2dmflrsxij" class="animable"></rect><rect x="109.62" y="85.03" width="13.63" height="290.78" style="fill: rgb(240, 240, 240); transform-origin: 116.435px 230.42px;" id="elensj8wxr1kq" class="animable"></rect><g id="elb4w0jd1q6vr"><rect x="83.78" y="382.33" width="65.31" height="12.7" style="fill: rgb(240, 240, 240); transform-origin: 116.435px 388.68px; transform: rotate(180deg);" class="animable"></rect></g><g id="eluzzc9an1qjs"><rect x="88.51" y="375.81" width="55.84" height="6.52" style="fill: rgb(224, 224, 224); transform-origin: 116.43px 379.07px; transform: rotate(180deg);" class="animable"></rect></g></g><g id="freepik--Shadow--inject-1" class="animable" style="transform-origin: 250px 416.24px;"><ellipse id="freepik--path--inject-1" cx="250" cy="416.24" rx="193.89" ry="11.32" style="fill: rgb(245, 245, 245); transform-origin: 250px 416.24px;" class="animable"></ellipse></g><g id="freepik--character-2--inject-1" class="animable" style="transform-origin: 319.521px 262.047px;"><path d="M290,125.52s-5.72-1.61-21.07.61c0,0,.43,24.86,3,37.34a59.83,59.83,0,0,0,17.4-.94S286.39,134.51,290,125.52Z" style="fill: rgb(255, 255, 255); transform-origin: 279.465px 144.34px;" id="el3abm242beth" class="animable"></path><g id="elm9ayr8arlsd"><path d="M290,125.52s-5.72-1.61-21.07.61c0,0,.43,24.86,3,37.34a59.83,59.83,0,0,0,17.4-.94S286.39,134.51,290,125.52Z" style="opacity: 0.1; transform-origin: 279.465px 144.34px;" class="animable"></path></g><path d="M272.89,182.15l-3.8-15.25s-4.18-2.51-4.53-5.3,4.09-10.56,4.95-10.55,6.47,4.2,6.46,5.44-1.12,7.86-1.12,7.86l7.63,14.79Z" style="fill: rgb(226, 135, 123); transform-origin: 273.51px 166.6px;" id="elkedoolapw3f" class="animable"></path><polygon points="270.52 176.47 268.33 171.34 279.12 165.07 282.48 170.77 270.52 176.47" style="fill: rgb(220, 114, 116); transform-origin: 275.405px 170.77px;" id="elo8xgb9mq4g" class="animable"></polygon><g id="el095cmbt1u96d"><polygon points="270.52 176.47 268.33 171.34 279.12 165.07 282.48 170.77 270.52 176.47" style="fill: rgb(255, 255, 255); opacity: 0.8; isolation: isolate; transform-origin: 275.405px 170.77px;" class="animable"></polygon></g><path d="M319.75,158.5c-6.48,4.3-20.87,25.24-24.43,24.93-4.6-.39-12.23-15.82-12.23-15.82l-14.16,8.53s16.58,33.48,25.83,31.37,26.78-27.79,28-31.57S327.79,153.16,319.75,158.5Z" style="fill: rgb(38, 50, 56); transform-origin: 296.832px 182.583px;" id="elcmnv6ndwei" class="animable"></path><g id="el6p3dwo3xja"><path d="M319.75,158.5c-6.48,4.3-20.87,25.24-24.43,24.93-4.6-.39-12.23-15.82-12.23-15.82l-14.16,8.53s16.58,33.48,25.83,31.37,26.78-27.79,28-31.57S327.79,153.16,319.75,158.5Z" style="opacity: 0.3; isolation: isolate; transform-origin: 296.832px 182.583px;" class="animable"></path></g><polygon points="317.53 407.61 309.42 408.47 307.9 390.97 316.01 390.11 317.53 407.61" style="fill: rgb(226, 135, 123); transform-origin: 312.715px 399.29px;" id="elp29b0dd17rj" class="animable"></polygon><polygon points="358.01 407.02 350.15 407.02 349.5 388.81 357.37 388.81 358.01 407.02" style="fill: rgb(226, 135, 123); transform-origin: 353.755px 397.915px;" id="el6ndnuiik7j3" class="animable"></polygon><path d="M349.06,406.11h9.55a.68.68,0,0,1,.67.54l1.55,7a1.18,1.18,0,0,1-1.15,1.4c-3.09-.05-5.34-.24-9.22-.24-2.39,0-9.6.25-12.9.25s-3.73-3.26-2.38-3.56c6.06-1.32,10.62-3.15,12.56-4.89A1.89,1.89,0,0,1,349.06,406.11Z" style="fill: rgb(38, 50, 56); transform-origin: 347.657px 410.585px;" id="eleojb61wfa14" class="animable"></path><path d="M346.46,407.49a2.38,2.38,0,0,1-1.51-.4,1.12,1.12,0,0,1-.39-1,.57.57,0,0,1,.32-.52c.87-.45,3.41,1.11,3.69,1.29a.16.16,0,0,1,.09.18.19.19,0,0,1-.14.16A9.47,9.47,0,0,1,346.46,407.49Zm-1.17-1.63a.4.4,0,0,0-.24.05c-.05,0-.11.07-.12.22a.77.77,0,0,0,.25.67,3.82,3.82,0,0,0,2.8.14A7.5,7.5,0,0,0,345.29,405.86Z" style="fill: rgb(220, 114, 116); transform-origin: 346.607px 406.493px;" id="elmucz1oj8rrd" class="animable"></path><path d="M348.47,407.21h-.09c-.81-.44-2.38-2.17-2.22-3a.61.61,0,0,1,.6-.49,1,1,0,0,1,.79.24c.91.74,1.1,3,1.11,3.11a.2.2,0,0,1-.09.17A.19.19,0,0,1,348.47,407.21ZM346.89,404h-.09c-.24,0-.26.14-.27.19-.1.51.9,1.82,1.71,2.43a4.38,4.38,0,0,0-.93-2.46A.65.65,0,0,0,346.89,404Z" style="fill: rgb(220, 114, 116); transform-origin: 347.404px 405.476px;" id="el2hdutt8ve9e" class="animable"></path><path d="M308.56,405.86h9.55a.68.68,0,0,1,.67.54l1.55,7a1.18,1.18,0,0,1-1.15,1.4c-3.09-.05-5.34-.24-9.22-.24-2.39,0-9.6.25-12.9.25s-3.73-3.26-2.38-3.56c6.06-1.32,10.62-3.15,12.56-4.89A1.89,1.89,0,0,1,308.56,405.86Z" style="fill: rgb(38, 50, 56); transform-origin: 307.157px 410.335px;" id="elzgitzqfmttb" class="animable"></path><path d="M306,407.24a2.38,2.38,0,0,1-1.51-.4,1.12,1.12,0,0,1-.39-1,.57.57,0,0,1,.32-.52c.87-.45,3.41,1.11,3.69,1.29a.16.16,0,0,1,.09.18.19.19,0,0,1-.14.16A9.47,9.47,0,0,1,306,407.24Zm-1.17-1.63a.4.4,0,0,0-.24.05c-.05,0-.11.07-.12.22a.77.77,0,0,0,.25.67,3.82,3.82,0,0,0,2.8.14A7.5,7.5,0,0,0,304.79,405.61Z" style="fill: rgb(220, 114, 116); transform-origin: 306.147px 406.243px;" id="elbyazxnb2jp5" class="animable"></path><path d="M308,407h-.09c-.81-.44-2.38-2.17-2.22-3a.61.61,0,0,1,.6-.49,1,1,0,0,1,.79.24c.91.74,1.1,3,1.11,3.11a.2.2,0,0,1-.09.17A.19.19,0,0,1,308,407Zm-1.58-3.19h-.09c-.24,0-.26.14-.27.19-.1.51.9,1.82,1.71,2.43a4.38,4.38,0,0,0-.93-2.46A.65.65,0,0,0,306.39,403.77Z" style="fill: rgb(220, 114, 116); transform-origin: 306.934px 405.266px;" id="elf1v57nkh4pl" class="animable"></path><g id="eltg56tuoyu7j"><polygon points="357.37 388.82 349.5 388.82 349.84 398.21 357.71 398.21 357.37 388.82" style="opacity: 0.2; isolation: isolate; transform-origin: 353.605px 393.515px;" class="animable"></polygon></g><path d="M354.13,229.08H312.4c-4,21.66-15.84,104.92-6.93,173.22l14.13-1.75s-1.86-97.27,10.61-130.79c1.44,17.94,3.14,37,4.62,47.18,3.63,25,11.74,84.22,11.74,84.22H361s-3.28-56.88-4.64-81.45C354.82,293,354.18,234.56,354.13,229.08Z" style="fill: rgb(38, 50, 56); transform-origin: 331.613px 315.69px;" id="eliglbp4tz6re" class="animable"></path><g id="elcniyv65973c"><g style="opacity: 0.3; isolation: isolate; transform-origin: 331.613px 315.69px;" class="animable"><path d="M354.13,229.08H312.4c-4,21.66-15.84,104.92-6.93,173.22l14.13-1.75s-1.86-97.27,10.61-130.79c1.44,17.94,3.14,37,4.62,47.18,3.63,25,11.74,84.22,11.74,84.22H361s-3.28-56.88-4.64-81.45C354.82,293,354.18,234.56,354.13,229.08Z" id="eljbd7wizrojg" class="animable" style="transform-origin: 331.613px 315.69px;"></path></g></g><g id="eld3ld1vfy8r"><path d="M310.72,239.16s12.3,2.84,20.87,0l-.77-6.67-19.95,0Z" style="opacity: 0.4; isolation: isolate; transform-origin: 321.155px 236.456px;" class="animable"></path></g><g id="elbn187w8wc7o"><path d="M316.91,240.13a49.54,49.54,0,0,0,7.92.22V232.5l-7.92,0Z" style="fill: rgb(255, 255, 255); opacity: 0.1; transform-origin: 320.87px 236.459px;" class="animable"></path></g><g id="el5j1z0nfxdjd"><path d="M330.21,269.76a111.8,111.8,0,0,0-4.66,18.05c-1.17-16,3.5-32.9,3.5-32.9Z" style="opacity: 0.2; isolation: isolate; transform-origin: 327.786px 271.36px;" class="animable"></path></g><path d="M348.63,134s-.31,7.66-6.28,5.86S343.36,131.29,348.63,134Z" style="fill: rgb(38, 50, 56); transform-origin: 344.344px 136.751px;" id="el81d9d8nzba" class="animable"></path><path d="M330.82,153.16a8,8,0,0,0,2.75-8.41l10.8-8.71s-1.4,10.69,1.21,16.35c0,0-6.52,6.61-11.49,5.1S330.82,153.16,330.82,153.16Z" style="fill: rgb(226, 135, 123); transform-origin: 338.06px 146.877px;" id="elmjh9pm5hz7l" class="animable"></path><g id="elemy9g5ubukt"><path d="M341.94,141.26l-4.27.18-4.1,3.31a8.61,8.61,0,0,1-.05,4.43C340.06,148.13,341.94,141.26,341.94,141.26Z" style="opacity: 0.2; isolation: isolate; transform-origin: 337.73px 145.22px;" class="animable"></path></g><path d="M341.66,160.88l-8.94-3.39-7.51.56s-7.94,18.1-10.88,36.79a297.83,297.83,0,0,0-3,39.26c.27-.06,11,2.29,20.95-1.09,0,0-6.63-28-3-40.83s12.34-31.3,12.34-31.3" style="fill: rgb(220, 114, 116); transform-origin: 326.495px 196.165px;" id="elu2rzy7gmw2h" class="animable"></path><g id="eln62be88f0e"><path d="M341.66,160.88l-8.94-3.39-7.51.56s-7.94,18.1-10.88,36.79a297.83,297.83,0,0,0-3,39.26c.27-.06,11,2.29,20.95-1.09,0,0-6.63-28-3-40.83s12.34-31.3,12.34-31.3" style="fill: rgb(255, 255, 255); opacity: 0.8; isolation: isolate; transform-origin: 326.495px 196.165px;" class="animable"></path></g><g id="elrtdbh01j4f"><path d="M329.22,157.75l.54,4.92s-6.65,12.93-9,21.58-4.29,34.88-4.29,34.88l4.16,7.15,3.82-7.15s-1-21,2.06-35.16,4.75-20.52,4.75-20.52l4.6-3.33-3.12-2.63Z" style="opacity: 0.4; isolation: isolate; transform-origin: 326.165px 191.885px;" class="animable"></path></g><polygon points="330.82 153.16 333.9 156.22 345.57 152.39 336.87 165.27 332.56 158.35 325.54 160.34 330.82 153.16" style="fill: rgb(255, 255, 255); transform-origin: 335.555px 158.83px;" id="elpzpt4twtgz9" class="animable"></polygon><path d="M330.82,153.16s-16.07,3.51-19.5,18-5.45,77.77-5.95,82.87,9.57,5.73,9.57,5.73-.54-32.73.28-41.42c.3-3.14.76-13.74,2.18-22C319.91,181.72,324.27,162.92,330.82,153.16Z" style="fill: rgb(38, 50, 56); transform-origin: 318.086px 206.46px;" id="elb9602u9wzu" class="animable"></path><path d="M327.49,154.33c-2.18,1.92-7.39,6-10,10.31l4.06,2.15L316,170.32s.46,15.59,1.82,23.76c2.56-14.22,6.8-31.65,13-40.92C330.82,153.16,329.5,153.53,327.49,154.33Z" style="fill: rgb(38, 50, 56); transform-origin: 323.41px 173.62px;" id="ello1hhxm6xx" class="animable"></path><g id="elkp01uxu4m"><path d="M327.49,154.33c-2.18,1.92-7.39,6-10,10.31l4.06,2.15L316,170.32s.46,15.59,1.82,23.76c2.56-14.22,6.8-31.65,13-40.92C330.82,153.16,329.5,153.53,327.49,154.33Z" style="fill: rgb(255, 255, 255); opacity: 0.1; isolation: isolate; transform-origin: 323.41px 173.62px;" class="animable"></path></g><path d="M318.51,119.6s-.56,5.88,4,7.19c0,0,2.61-6.57-.56-7.19S318.51,119.6,318.51,119.6Z" style="fill: rgb(38, 50, 56); transform-origin: 321.004px 123.057px;" id="elh2o1yrjqfyi" class="animable"></path><path d="M322.46,136.16c.73,4.16,3.85,12.88,12.68,10.22s9.2-9.63,9.35-11.64-1.73-17.61-7.37-19.1-12.5.35-14.66,3.58S322.46,136.16,322.46,136.16Z" style="fill: rgb(226, 135, 123); transform-origin: 332.999px 130.996px;" id="els1bedr52jq" class="animable"></path><path d="M344,129.71c.14.18-5.84,3.76-5.65-8.61,0,0-4.33,1.84-5.33-3.07,0,0-18.1,6.24-16.3-.8,2.41-9.4,17.05-10.11,23.36-5.19,0,0,3.13-3.51,6.08.27,3.53,4.52,3.47,16.77,3.47,16.77Z" style="fill: rgb(38, 50, 56); transform-origin: 333.112px 119.68px;" id="elpdqf8lnyqk" class="animable"></path><path d="M348.5,128.12c-2.12-3.33-11.59.16-13.43.88l-.06-.47a1.3,1.3,0,0,0-.52-.86,1.26,1.26,0,0,0-1-.19l-3.89.84a1.25,1.25,0,0,0-1,1.42c0,.12.05.27.07.4a2,2,0,0,0-1.89.27l0-.32a1.27,1.27,0,0,0-.5-.83,1.22,1.22,0,0,0-.93-.23l-3.27.49a1.25,1.25,0,0,0-1.06,1.34c.06.71.13,1.34.2,1.85a1.25,1.25,0,0,0,.5.82,1.21,1.21,0,0,0,.74.24h.18l3.33-.49a1.25,1.25,0,0,0,1.06-1.42l-.12-.86a1.54,1.54,0,0,1,1.9-.24c.05.27.1.55.15.81a1.26,1.26,0,0,0,.53.8,1.24,1.24,0,0,0,.69.21,1.09,1.09,0,0,0,.26,0l3.82-.78a1.26,1.26,0,0,0,1-1.4l-.12-.85c1.42-.55,11-4.16,12.94-1.12a.25.25,0,0,0,.35.07A.24.24,0,0,0,348.5,128.12Zm-22.59,4.66-3.33.48a.78.78,0,0,1-.56-.13.74.74,0,0,1-.29-.49c-.07-.5-.14-1.12-.2-1.83a.75.75,0,0,1,.64-.8l3.27-.49h.11a.82.82,0,0,1,.45.14.76.76,0,0,1,.29.5l.26,1.77A.76.76,0,0,1,325.91,132.78Zm8.26-1.51-3.82.78a.76.76,0,0,1-.57-.11.74.74,0,0,1-.32-.47c-.11-.61-.23-1.28-.31-1.81a.74.74,0,0,1,.58-.85l3.88-.84a.47.47,0,0,1,.16,0,.73.73,0,0,1,.43.13.76.76,0,0,1,.32.52l.24,1.83A.75.75,0,0,1,334.17,131.27Z" id="elb34p9ok4ffq" class="animable" style="transform-origin: 334.79px 130.237px;"></path><path d="M332.65,129.78c.15.61-.13,1.18-.55,1.25s-.82-.38-.93-1,.14-1.19.55-1.26S332.54,129.15,332.65,129.78Z" style="fill: rgb(38, 50, 56); transform-origin: 331.917px 129.9px;" id="elhbbr8h0k0hk" class="animable"></path><path d="M324.89,131c.15.62-.14,1.19-.55,1.26s-.82-.39-.93-1,.14-1.18.55-1.25S324.79,130.39,324.89,131Z" style="fill: rgb(38, 50, 56); transform-origin: 324.157px 131.135px;" id="eljma14wpvugo" class="animable"></path><path d="M327.88,130.91a22.24,22.24,0,0,1-2.07,5.86,3.65,3.65,0,0,0,3.1,0Z" style="fill: rgb(220, 87, 83); transform-origin: 327.36px 134.013px;" id="elgj0117iot1" class="animable"></path><path d="M334,126.06a.36.36,0,0,1-.36.14,3,3,0,0,0-2.59.72.38.38,0,1,1-.55-.51h0a3.72,3.72,0,0,1,3.26-.94.39.39,0,0,1,.32.42h0A.46.46,0,0,1,334,126.06Z" style="fill: rgb(38, 50, 56); transform-origin: 332.218px 126.245px;" id="elljky65aq3w" class="animable"></path><path d="M330.48,139.88h0a5.74,5.74,0,0,0,4.63-2.52.2.2,0,0,0-.07-.27.19.19,0,0,0-.26,0v0a5.46,5.46,0,0,1-4.31,2.32.18.18,0,0,0-.19.19v0a.19.19,0,0,0,.19.19Z" style="fill: rgb(38, 50, 56); transform-origin: 332.708px 138.459px;" id="elmnp2l532m9c" class="animable"></path><path d="M322.22,127.18a.32.32,0,0,1,0-.62h0a3.7,3.7,0,0,1,3.39.26.37.37,0,0,1,.09.52h0a.39.39,0,0,1-.52.09h0a3,3,0,0,0-2.69-.17A.37.37,0,0,1,322.22,127.18Z" style="fill: rgb(38, 50, 56); transform-origin: 323.874px 126.879px;" id="el6zk347k4oum" class="animable"></path><path d="M345.58,152.39s10.69,6.24,16.21,8.58-2.85,40.43-3.06,47,5.76,51.7,5.76,51.7-17,4.43-30.93,1.12c0,0-9.84-37.54-8.63-57.21C326.1,184.64,331.78,166,345.58,152.39Z" style="fill: rgb(38, 50, 56); transform-origin: 344.658px 207.204px;" id="elzpqb9w8e76r" class="animable"></path><path d="M350,154.91c-2.53-1.43-4.37-2.52-4.37-2.52-13.35,13.16-19.08,31-20.5,49.31,5.78-14.11,19.25-27,19.25-27l-4.16-6.09,7.63-.6A51.46,51.46,0,0,1,350,154.91Z" style="fill: rgb(38, 50, 56); transform-origin: 337.565px 177.045px;" id="elo7nasbog4cc" class="animable"></path><g id="elo83v6k6mnri"><path d="M350,154.91c-2.53-1.43-4.37-2.52-4.37-2.52-13.35,13.16-19.08,31-20.5,49.31,5.78-14.11,19.25-27,19.25-27l-4.16-6.09,7.63-.6A51.46,51.46,0,0,1,350,154.91Z" style="fill: rgb(255, 255, 255); opacity: 0.1; isolation: isolate; transform-origin: 337.565px 177.045px;" class="animable"></path></g><path d="M345.38,177.31a.34.34,0,0,0-.36-.3l-24,2v1.68h-2.53l3.22,38.83c0,.18.13.18.14.31l.26,0,.21-.3.8-.07.26.26,25.05-2.11a.33.33,0,0,0,.31-.35Z" style="fill: rgb(220, 114, 116); transform-origin: 333.615px 198.42px;" id="elpd01p84qhr" class="animable"></path><path d="M319.42,216.9a3.25,3.25,0,0,0,2.39,3c-.17-2.05-.41-4-.41-4s-2.19-29.79-2.76-36.62a2.73,2.73,0,0,0-2.18,2.55c.08.93.24,2.82.24,2.82S318.79,209.48,319.42,216.9Z" style="fill: rgb(220, 114, 116); transform-origin: 319.135px 199.59px;" id="el15b7zyy3tis" class="animable"></path><g id="elyeoc2bxxc3"><path d="M319.42,216.9a3.25,3.25,0,0,0,2.39,3c-.17-2.05-.41-4-.41-4s-2.19-29.79-2.76-36.62a2.73,2.73,0,0,0-2.18,2.55c.08.93.24,2.82.24,2.82S318.79,209.48,319.42,216.9Z" style="opacity: 0.2; isolation: isolate; transform-origin: 319.135px 199.59px;" class="animable"></path></g><path d="M321.82,219l25.88-2.1-1.5-4.44-24.75,2.09a2.1,2.1,0,0,0-1.08,2.33A2.51,2.51,0,0,0,321.82,219Z" style="fill: rgb(220, 114, 116); transform-origin: 334.009px 215.73px;" id="el2c221wx1aqx" class="animable"></path><g id="eli8d8pl9a24a"><path d="M321.82,219l25.88-2.1-1.5-4.44-24.75,2.09a2.1,2.1,0,0,0-1.08,2.33A2.51,2.51,0,0,0,321.82,219Z" style="fill: rgb(255, 255, 255); opacity: 0.6; transform-origin: 334.009px 215.73px;" class="animable"></path></g><path d="M347.24,212.52l-24.44,2.06-.19-.13-.76.07-.16.15-.32,0a.07.07,0,0,1-.07-.06l-3-35.31s0-.07.06-.07l.37,0,.15.27.76-.06.18-.3,24.42-2.06a.09.09,0,0,1,.07.06l3,35.31A.07.07,0,0,1,347.24,212.52Z" style="fill: rgb(220, 114, 116); transform-origin: 332.805px 195.875px;" id="elzxmft8ww5" class="animable"></path><g id="eln1wb231zx"><path d="M341.64,197.13l-17.17,1.44-1.22-14.46,17.17-1.45Zm-16.36.36,15.38-1.29-1.05-12.46L324.23,185Z" style="opacity: 0.3; isolation: isolate; transform-origin: 332.445px 190.615px;" class="animable"></path></g><g id="elzk6nt3h88ym"><path d="M316.91,187.11a3.26,3.26,0,0,1,1.88-2.26c0,.27,0,.38.09,1.12a4.47,4.47,0,0,0-1.85,2.6Z" style="opacity: 0.3; isolation: isolate; transform-origin: 317.895px 186.71px;" class="animable"></path></g><g id="eln3safvw28h"><path d="M318.76,209.14a3.28,3.28,0,0,1,1.88-2.27c0,.27.05.39.1,1.13a4.41,4.41,0,0,0-1.85,2.6Z" style="opacity: 0.3; isolation: isolate; transform-origin: 319.75px 208.735px;" class="animable"></path></g><g id="elwrc8m1t5hgn"><rect x="320.38" y="179.41" width="0.76" height="35.14" style="opacity: 0.3; isolation: isolate; transform-origin: 320.76px 196.98px; transform: rotate(-4.81deg);" class="animable"></rect></g><g id="eldav7l5l74cu"><rect x="327.48" y="201.96" width="12.09" height="1.67" style="fill: rgb(220, 114, 116); transform-origin: 333.525px 202.795px; transform: rotate(-4.81deg);" class="animable"></rect></g><g id="elnpjj2knxzi"><rect x="330.45" y="205.59" width="6.76" height="1.67" style="fill: rgb(220, 114, 116); transform-origin: 333.83px 206.425px; transform: rotate(-4.81deg);" class="animable"></rect></g><g id="el307njzgoa2z"><path d="M321.78,216.49l23.14-2s-7.05.46-15.77,1.2C325.45,216.05,321.78,216.49,321.78,216.49Z" style="opacity: 0.3; isolation: isolate; transform-origin: 333.35px 215.49px;" class="animable"></path></g><g id="eldowvvlwnbad"><path d="M321.85,217.39l23.2-2.16-15.83,1.33C325.52,216.87,321.85,217.39,321.85,217.39Z" style="opacity: 0.3; isolation: isolate; transform-origin: 333.45px 216.31px;" class="animable"></path></g><g id="elty67ir3v9p"><path d="M321.92,218.2,345.23,216l-15.94,1.35C325.59,217.68,321.92,218.2,321.92,218.2Z" style="opacity: 0.3; isolation: isolate; transform-origin: 333.575px 217.1px;" class="animable"></path></g><path d="M326.52,215.22l.38,4.55-1.63-1.53L323.91,220s-.09-1.12-.38-4.6C324.43,215.32,325.79,215.28,326.52,215.22Z" style="fill: rgb(220, 114, 116); transform-origin: 325.215px 217.61px;" id="el4viivexi9d2" class="animable"></path><g id="elzyx3feguq0o"><path d="M326.52,215.22l.38,4.55-1.63-1.53L323.91,220s-.09-1.12-.38-4.6C324.43,215.32,325.79,215.28,326.52,215.22Z" style="opacity: 0.3; isolation: isolate; transform-origin: 325.215px 217.61px;" class="animable"></path></g><g id="elxf0wqflwp7i"><path d="M321.71,215.63l23.41-1.84s-7.32.34-16,1.08C325.38,215.18,321.71,215.63,321.71,215.63Z" style="opacity: 0.3; isolation: isolate; transform-origin: 333.415px 214.71px;" class="animable"></path></g><path d="M347.31,212.51l-1.37.12a2.9,2.9,0,0,0-.08,2.18,2.56,2.56,0,0,0,1.81,2Z" style="fill: rgb(220, 114, 116); transform-origin: 346.678px 214.66px;" id="el0miuxvlrmjv" class="animable"></path><path d="M340.46,214.8l-14.28-6.6s-4.58,1.69-7,.22-5.68-9.8-5.13-10.47,7.33-2.41,8.28-1.63,5.43,5.8,5.43,5.8l16.31,3.32Z" style="fill: rgb(226, 135, 123); transform-origin: 329.029px 205.461px;" id="elmumci9ee9vr" class="animable"></path><polygon points="336.47 200.91 330.75 200.57 331.36 213.44 337.44 214.46 336.47 200.91" style="fill: rgb(255, 255, 255); transform-origin: 334.095px 207.515px;" id="el51dm8aj2o8g" class="animable"></polygon><polygon points="336.47 200.91 330.75 200.57 331.36 213.44 337.44 214.46 336.47 200.91" style="fill: rgb(220, 114, 116); transform-origin: 334.095px 207.515px;" id="elm6g9jhxrx0t" class="animable"></polygon><g id="elzec5e18qsvk"><polygon points="336.47 200.91 330.75 200.57 331.36 213.44 337.44 214.46 336.47 200.91" style="fill: rgb(255, 255, 255); opacity: 0.8; isolation: isolate; transform-origin: 334.095px 207.515px;" class="animable"></polygon></g><path d="M357.88,159.68c9.55,1,13.39,15.41,14.72,22.61,1.3,7,4.84,28.89-3.21,34.8s-33.57-.57-33.57-.57L334.46,199s13.71,3.09,19.63.79c5-1.93,2.67-19.76,2.15-23C355.5,172.24,353.39,159.2,357.88,159.68Z" style="fill: rgb(38, 50, 56); transform-origin: 354.481px 189.622px;" id="elrz12j2gadw" class="animable"></path><g id="elyfhhqyypoar"><path d="M357.88,159.68c9.55,1,13.39,15.41,14.72,22.61,1.3,7,4.84,28.89-3.21,34.8s-33.57-.57-33.57-.57L334.46,199s13.71,3.09,19.63.79c5-1.93,2.67-19.76,2.15-23C355.5,172.24,353.39,159.2,357.88,159.68Z" style="opacity: 0.3; isolation: isolate; transform-origin: 354.481px 189.622px;" class="animable"></path></g><path d="M342.1,130.67s1.58-4.37,5.62-4.39c3.24,0,3.71,4.05,2.23,6.85-1.13,2.15-4.84,4.84-7.2,2S342.1,130.67,342.1,130.67Z" style="fill: rgb(226, 135, 123); transform-origin: 346.127px 131.319px;" id="elv1s5vpkhgb" class="animable"></path></g><g id="freepik--character-1--inject-1" class="animable" style="transform-origin: 167.137px 284.852px;"><polygon points="145.38 329.06 145.02 344.63 143.38 415.06 137.97 415.06 136.34 344.63 135.98 329.06 145.38 329.06" style="fill: rgb(69, 123, 251); transform-origin: 140.68px 372.06px;" id="elzqbe7njg3wo" class="animable"></polygon><g id="eled373i2u0cl"><polygon points="145.38 329.06 145.02 344.63 143.38 415.06 137.97 415.06 136.34 344.63 135.98 329.06 145.38 329.06" style="fill: rgb(255, 255, 255); opacity: 0.4; isolation: isolate; transform-origin: 140.68px 372.06px;" class="animable"></polygon></g><g id="el38e8um8tzmi"><polygon points="145.38 329.06 145.02 345.06 136.34 345.06 135.98 329.06 145.38 329.06" style="opacity: 0.2; isolation: isolate; transform-origin: 140.68px 337.06px;" class="animable"></polygon></g><polygon points="174.76 414.81 169.76 330.16 161.59 330.16 168.59 414.81 174.76 414.81" style="fill: rgb(69, 123, 251); transform-origin: 168.175px 372.485px;" id="elte80k6ftq3o" class="animable"></polygon><g id="elt3mw5zfvc4o"><polygon points="168.57 414.81 174.75 414.81 170.21 337.76 169.76 330.06 161.59 330.06 162.22 337.76 168.57 414.81" style="fill: rgb(255, 255, 255); opacity: 0.5; isolation: isolate; transform-origin: 168.17px 372.435px;" class="animable"></polygon></g><g id="el0176s0ttkxnu"><polygon points="161.59 330.06 162.22 338.06 170.21 338.06 169.76 330.06 161.59 330.06" style="opacity: 0.2; isolation: isolate; transform-origin: 165.9px 334.06px;" class="animable"></polygon></g><polygon points="112.77 414.81 119.76 330.16 111.59 330.16 106.6 414.81 112.77 414.81" style="fill: rgb(69, 123, 251); transform-origin: 113.18px 372.485px;" id="el5nf8j2rtyf" class="animable"></polygon><g id="el35g6hbhnob6"><polygon points="112.78 414.81 119.13 337.76 119.76 330.06 111.59 330.06 111.14 337.76 106.6 414.81 112.78 414.81" style="fill: rgb(255, 255, 255); opacity: 0.5; isolation: isolate; transform-origin: 113.18px 372.435px;" class="animable"></polygon></g><g id="elek4qeothnz"><polygon points="119.76 330.06 119.13 338.06 111.14 338.06 111.59 330.06 119.76 330.06" style="opacity: 0.2; isolation: isolate; transform-origin: 115.45px 334.06px;" class="animable"></polygon></g><path d="M112.22,321.39h56.92a5,5,0,0,1,5,5v6.69a0,0,0,0,1,0,0H107.22a0,0,0,0,1,0,0v-6.69A5,5,0,0,1,112.22,321.39Z" id="elrbs9d7gjxlr" class="animable" style="transform-origin: 140.68px 327.235px;"></path><rect x="104.01" y="327.24" width="73.33" height="5.84" rx="2.01" style="fill: rgb(69, 123, 251); transform-origin: 140.675px 330.16px;" id="elp0qvgnfp44o" class="animable"></rect><g id="el91p048ajjle"><rect x="104.01" y="327.24" width="73.33" height="5.84" rx="2.01" style="fill: rgb(255, 255, 255); opacity: 0.6; isolation: isolate; transform-origin: 140.675px 330.16px;" class="animable"></rect></g><g id="freepik--group--inject-1" class="animable" style="transform-origin: 173.052px 284.846px;"><path d="M176.88,245.66s20.14,20.9,21.36,22,8.73,3.52,9.84,4.48-.76,8-1.5,9.35-11.36-4.45-12-5.4a21.21,21.21,0,0,1-1.5-3.68l-22.86-19.2Z" style="fill: rgb(233, 176, 118); transform-origin: 189.322px 263.676px;" id="el6pnbzwmtedw" class="animable"></path><path d="M159.91,225.43s.06.81.22,2.15.4,3.36.76,5.6c.87,5.45,2.39,12.46,4.83,16.7a9.32,9.32,0,0,0,2.41,2.91c3.2,2.38,17.33,17.93,17.33,17.93l7.51-9.55L183,248.55s-6.58-37.17-16.61-40.07C162.05,207.22,159.91,225.43,159.91,225.43Z" style="fill: rgb(220, 114, 116); transform-origin: 176.44px 239.569px;" id="elb9qdbjfu4e" class="animable"></path><g id="elx3dzcwe9b7q"><path d="M159.91,225.43s.06.81.22,2.15.4,3.36.76,5.6c.87,5.45,2.39,12.46,4.83,16.7a9.32,9.32,0,0,0,2.41,2.91c3.2,2.38,17.33,17.93,17.33,17.93l7.51-9.55L183,248.55s-6.58-37.17-16.61-40.07C162.05,207.22,159.91,225.43,159.91,225.43Z" style="opacity: 0.6; transform-origin: 176.44px 239.569px;" class="animable"></path></g><polygon points="169.02 407.84 176.99 406.74 178.09 387.81 170.14 388.91 169.02 407.84" style="fill: rgb(233, 176, 118); transform-origin: 173.555px 397.825px;" id="elrq3u7rbokzj" class="animable"></polygon><g id="elpz86yslr3ae"><polygon points="170.14 388.91 178.09 387.82 177.46 398.64 169.51 399.34 170.14 388.91" style="opacity: 0.2; isolation: isolate; transform-origin: 173.8px 393.58px;" class="animable"></polygon></g><path d="M169.34,296.52l-1.94-12.18-44.66-2.67S118,307,121.64,313.76c6.51,12.05,41.62,6,51.89,7.15C167.39,346,168,395.09,168,395.09l14.67,1.12s11.29-52.87,13.57-78C197.77,301.26,183.72,301.68,169.34,296.52Z" style="fill: rgb(220, 114, 116); transform-origin: 158.31px 338.94px;" id="el0037102l2omvh" class="animable"></path><polygon points="166.27 395.78 183.9 396.94 185.41 389.39 166.04 388.49 166.27 395.78" style="fill: rgb(69, 123, 251); transform-origin: 175.725px 392.715px;" id="el7v90y42iwsw" class="animable"></polygon><polygon points="187.4 400.77 195.42 401.36 200.44 383.06 192.43 382.49 187.4 400.77" style="fill: rgb(233, 176, 118); transform-origin: 193.92px 391.925px;" id="elijm20bu4q7" class="animable"></polygon><path d="M196.53,401.71s0,.05,0,.07a.09.09,0,0,0,.07,0,10,10,0,0,0,2,.85,2.15,2.15,0,0,0,1.56,0,1,1,0,0,0,.51-.94.72.72,0,0,0-.27-.63,3.24,3.24,0,0,0-2.25-.06,2.92,2.92,0,0,0,1.18-1.63.71.71,0,0,0-.48-.73.92.92,0,0,0-.81,0c-1,.53-1.35,2.77-1.38,2.89h0l-.14,0S196.51,401.69,196.53,401.71Zm.6-.44-.18.05c.19-.74.59-1.95,1.18-2.26a.53.53,0,0,1,.43-.06l.08,0c.25.11.28.25.27.36C198.84,399.93,197.92,400.83,197.13,401.27Zm0,.41c1.06-.32,2.53-.61,3-.27a.36.36,0,0,1,.13.31.71.71,0,0,1-.31.61C199.5,402.58,198.47,402.34,197.16,401.68Z" style="fill: rgb(220, 114, 116); transform-origin: 198.595px 400.661px;" id="el8kd08wj6ky8" class="animable"></path><g id="el3qfr1gngpzs"><polygon points="192.43 382.49 200.44 383.07 197.57 393.53 189.65 392.56 192.43 382.49" style="opacity: 0.2; isolation: isolate; transform-origin: 195.045px 388.01px;" class="animable"></polygon></g><path d="M203.16,392.24,189,388.09s8.43-47.58,17-64.08c-.64-.21-1.49-.48-2.54-.79-1.89-.57-4.4-1.28-7.35-2.1C175.61,315.43,134,304.76,134,304.76L153,287s75.68,11.54,77.25,31.48C231,328.1,203.16,392.24,203.16,392.24Z" style="fill: rgb(220, 114, 116); transform-origin: 182.132px 339.62px;" id="el0tb22escq1e" class="animable"></path><polygon points="187.22 388.4 204.22 393.21 207.27 386.14 188.51 381.22 187.22 388.4" style="fill: rgb(69, 123, 251); transform-origin: 197.245px 387.215px;" id="ele1vpk2v827c" class="animable"></polygon><g id="elw3vr35dhjdn"><path d="M203.48,323.22c-1.89-.57-4.4-1.28-7.35-2.1.59-4.84.6-10.39-1.73-13.22-4.63-5.64-16.54-8.95-23.32-10.15-5.67-1-24.72-3-24.72-3s24.72-2.37,50,5C208.84,303.41,206.41,315.62,203.48,323.22Z" style="opacity: 0.2; isolation: isolate; transform-origin: 176.1px 308.803px;" class="animable"></path></g><path d="M120.26,294.4c-3-2.29-.12-23.59-1.65-44.55-2.33-31.89,2.68-42.28,5-43.28a57.44,57.44,0,0,1,10.45-1.15,165.88,165.88,0,0,1,19.31.41,86,86,0,0,1,13,2.65s10.53,33.5,3.8,81.75Z" style="fill: rgb(220, 114, 116); transform-origin: 145.212px 249.853px;" id="elw85viqlj9wf" class="animable"></path><g id="elbi47l83hf8c"><g style="opacity: 0.5; isolation: isolate; transform-origin: 145.212px 249.853px;" class="animable"><path d="M120.26,294.4c-3-2.29-.12-23.59-1.65-44.55-2.33-31.89,2.68-42.28,5-43.28a57.44,57.44,0,0,1,10.45-1.15,165.88,165.88,0,0,1,19.31.41,86,86,0,0,1,13,2.65s10.53,33.5,3.8,81.75Z" id="el4nspe2z0ndp" class="animable" style="transform-origin: 145.212px 249.853px;"></path></g></g><path d="M136.47,183.77c1.08,6.23,2.05,17.64-2.38,21.7a19.92,19.92,0,0,0,14,6.35c8,.35,5.3-5.94,5.3-5.94-6.89-1.8-6.6-6.94-5.29-11.74Z" style="fill: rgb(226, 135, 123); transform-origin: 143.959px 197.802px;" id="elnyvag8p3vpk" class="animable"></path><g id="elt3h46g3fjj"><path d="M141.21,188l6.89,6.15a19.59,19.59,0,0,0-.67,3.41c-2.64-.44-6.21-3.42-6.43-6.2A9.06,9.06,0,0,1,141.21,188Z" style="opacity: 0.2; isolation: isolate; transform-origin: 144.515px 192.78px;" class="animable"></path></g><path d="M158.81,175.46s6.33,1.34,7.2-2.61-.7-4.63,1.18-6.53.67-8.39-4.18-7.11-7.39-5.39-11.41-4.48-4.64,3.71-7.17,4.37-7.55-2.61-10.77-.67-.74,6.1-1.83,7.69-3.75,5.64,0,11.58c3.44,5.44-.84,8.17-3.06,7.66a.5.5,0,0,0-.63.52c.06.63.43,1.52,1.94,2.08,2.52.94,3-.43,3.58.29s1.84,3.09,6,.66S145.85,171.11,158.81,175.46Z" style="fill: rgb(38, 50, 56); transform-origin: 148.086px 172.312px;" id="el5iw86m4v4mj" class="animable"></path><path d="M158.9,184.44c-.72,4.16-3.84,12.88-12.67,10.22S137,185,136.88,183s1.72-17.62,7.37-19.1,12.5.35,14.65,3.57S158.9,184.44,158.9,184.44Z" style="fill: rgb(226, 135, 123); transform-origin: 148.365px 179.268px;" id="elgiwpx0ohhe6" class="animable"></path><path d="M148.71,178.06c-.15.61.14,1.19.55,1.26s.83-.39.94-1-.15-1.19-.55-1.25S148.82,177.43,148.71,178.06Z" style="fill: rgb(38, 50, 56); transform-origin: 149.448px 178.196px;" id="elf11rwslsdqw" class="animable"></path><path d="M155.69,179.27c-.15.61.14,1.19.55,1.25s.82-.38.93-1-.14-1.19-.55-1.26S155.79,178.68,155.69,179.27Z" style="fill: rgb(38, 50, 56); transform-origin: 156.423px 179.389px;" id="elzz4gp0nq92j" class="animable"></path><path d="M153.48,179.19a23,23,0,0,0,2.07,5.86,3.69,3.69,0,0,1-3.1,0Z" style="fill: rgb(220, 87, 83); transform-origin: 154px 182.291px;" id="elydllieeo1l" class="animable"></path><path d="M151.41,174.15a.41.41,0,0,0-.39,0,3,3,0,0,1-2.66.4.37.37,0,0,0-.49.19.37.37,0,0,0,.2.49h0a3.69,3.69,0,0,0,3.36-.46.38.38,0,0,0,.12-.51h0A.8.8,0,0,0,151.41,174.15Z" style="fill: rgb(38, 50, 56); transform-origin: 149.721px 174.772px;" id="elrczsr1xafcg" class="animable"></path><path d="M147.9,187.78h0a5.73,5.73,0,0,1,5.21.78.19.19,0,0,1,0,.28.2.2,0,0,1-.27,0h0a5.42,5.42,0,0,0-4.84-.7.21.21,0,0,1-.25-.12v0a.18.18,0,0,1,.11-.24Z" style="fill: rgb(38, 50, 56); transform-origin: 150.454px 188.183px;" id="eliwewpv8v03" class="animable"></path><path d="M156.62,174.59a.41.41,0,0,0-.22,0,.37.37,0,0,0-.21.48h0a3.71,3.71,0,0,0,2.52,2.28.38.38,0,0,0,.44-.29h0a.38.38,0,0,0-.29-.44h0a3,3,0,0,1-2-1.84A.41.41,0,0,0,156.62,174.59Z" style="fill: rgb(38, 50, 56); transform-origin: 157.66px 175.966px;" id="elzg7zu1j2elr" class="animable"></path><path d="M163.1,167.15c1.84,2.17-4.14,5.23-6.47,3.57-2-1.44-4.18-3.1-6.82-1.52s-2.89.2-4.71.2.72,3.9-1.79,5.62c-1.44,1-3.51,1.49-2.86,3.24s-.32,4.19-2.82,3.74c0,0,2.34-.66.88-3.05s-2.72-1-2.72-1,.7-13.17,7-15.59S160.06,163.57,163.1,167.15Z" style="fill: rgb(38, 50, 56); transform-origin: 149.618px 171.815px;" id="eln694mjh3kfk" class="animable"></path><path d="M139.26,179s-1.58-4.37-5.61-4.38c-3.25,0-3.71,4-2.24,6.85,1.14,2.15,4.65,4.66,7.2,2C140.12,181.88,139.26,179,139.26,179Z" style="fill: rgb(226, 135, 123); transform-origin: 135.058px 179.619px;" id="elys6gvtbtyug" class="animable"></path><path d="M150.71,256.29s27.68,8.73,29.27,9.1,9.35-1.09,10.78-.77,3.17,7.39,3.16,8.93-12.11,1.51-13.12,1a21,21,0,0,1-3.09-2.52l-29.25-5.94Z" style="fill: rgb(233, 176, 118); transform-origin: 171.19px 265.577px;" id="el4yuf3zpxin8" class="animable"></path><path d="M123.64,206.57c-15.58,1.43-4.06,46.69,2.26,53.21s28,8.86,28,8.86l2.75-12.17s-16.31-4.35-19.2-6.23-4.92-20.65-6.64-29.78A25.91,25.91,0,0,0,123.64,206.57Z" style="fill: rgb(220, 114, 116); transform-origin: 136.245px 237.605px;" id="ele1bjduxnwv" class="animable"></path><g id="el4kqpvsum3i5"><path d="M123.64,206.57c-15.58,1.43-4.06,46.69,2.26,53.21s28,8.86,28,8.86l2.75-12.17s-16.31-4.35-19.2-6.23-4.92-20.65-6.64-29.78A25.91,25.91,0,0,0,123.64,206.57Z" style="opacity: 0.6; transform-origin: 136.245px 237.605px;" class="animable"></path></g><g id="elcdzvchlp14h"><polygon points="166.27 395.78 183.9 396.94 185.41 389.39 166.04 388.49 166.27 395.78" style="fill: rgb(255, 255, 255); opacity: 0.2; transform-origin: 175.725px 392.715px;" class="animable"></polygon></g><g id="el6spsrkvtmqe"><polygon points="187.22 388.4 204.22 393.21 207.27 386.14 188.51 381.22 187.22 388.4" style="fill: rgb(255, 255, 255); opacity: 0.2; transform-origin: 197.245px 387.215px;" class="animable"></polygon></g><path d="M196.21,400.54l-8.69-2.42a.57.57,0,0,0-.72.36h0l-2.34,6.76a1.42,1.42,0,0,0,1,1.75c3,.79,4.53,1,8.36,2.06,2.35.65,6.93,2.15,10.28,2.53s3.63-2.94,2.25-3.39c-3.28-1.1-7.2-4.52-8.91-6.84A2.23,2.23,0,0,0,196.21,400.54Z" style="fill: rgb(38, 50, 56); transform-origin: 195.769px 404.851px;" id="elcfhiqp58d3" class="animable"></path><path d="M177.78,406.77a1,1,0,0,1,.17,0s.18,0,.2.07,0,.05,0,.06h.06a10.85,10.85,0,0,0,2.1.42,2.22,2.22,0,0,0,1.53-.3,1,1,0,0,0,.29-1,.72.72,0,0,0-.41-.56,3.25,3.25,0,0,0-2.22.41,2.91,2.91,0,0,0,.79-1.84.76.76,0,0,0-.68-.6,1.19,1.19,0,0,0-.9.2c-.83.73-1,3-1,3.14h0Zm.86-.47-.16.09a4,4,0,0,1,.68-2.46.56.56,0,0,1,.41-.14h.09c.26.05.33.19.33.29A3.72,3.72,0,0,1,178.64,406.3Zm.12.4c1-.54,2.34-1.12,2.86-.89a.36.36,0,0,1,.19.28.71.71,0,0,1-.18.66C181.23,407.09,180.18,407.07,178.76,406.7Z" style="fill: rgb(220, 114, 116); transform-origin: 179.937px 405.381px;" id="elskaxmm71iei" class="animable"></path><path d="M177.59,405.78l-9-.56a.59.59,0,0,0-.63.51h0l-.88,7.1a1.42,1.42,0,0,0,1.31,1.5c3.14.15,4.65.06,8.61.28,2.43.14,7.22.66,10.58.33s2.94-3.63,1.49-3.79c-3.43-.39-8-2.91-10.13-4.83A2.25,2.25,0,0,0,177.59,405.78Z" style="fill: rgb(38, 50, 56); transform-origin: 178.615px 410.133px;" id="eltgyhhg281r" class="animable"></path></g><g id="el1a643pjxhhm"><polygon points="155.06 221.73 167.49 220.57 168.12 223.8 155.82 225.52 155.06 221.73" style="fill: rgb(255, 255, 255); opacity: 0.3; isolation: isolate; transform-origin: 161.59px 223.045px;" class="animable"></polygon></g></g><g id="freepik--Table--inject-1" class="animable" style="transform-origin: 172.43px 334.87px;"><path d="M83.12,258H214.21a0,0,0,0,1,0,0v5.51a2.16,2.16,0,0,1-2.16,2.16H85.29a2.16,2.16,0,0,1-2.16-2.16V258A0,0,0,0,1,83.12,258Z" style="fill: rgb(38, 50, 56); transform-origin: 148.665px 261.835px;" id="elad0jykxaala" class="animable"></path><g id="el463ovqvyu87"><path d="M83.12,258H214.21a0,0,0,0,1,0,0v5.51a2.16,2.16,0,0,1-2.16,2.16H85.29a2.16,2.16,0,0,1-2.16-2.16V258A0,0,0,0,1,83.12,258Z" style="fill: rgb(255, 255, 255); opacity: 0.3; isolation: isolate; transform-origin: 148.665px 261.835px;" class="animable"></path></g><g id="el0karj8b7tex"><rect x="83.12" y="257.97" width="131.08" height="3.84" style="opacity: 0.2; isolation: isolate; transform-origin: 148.66px 259.89px;" class="animable"></rect></g><path d="M218,259H79.33a2.16,2.16,0,0,1-2.17-2.16h0a2.17,2.17,0,0,1,2.17-2.16H218a2.16,2.16,0,0,1,2.16,2.16h0A2.15,2.15,0,0,1,218,259Z" style="fill: rgb(38, 50, 56); transform-origin: 148.66px 256.84px;" id="ell22dzvk13a" class="animable"></path><g id="el4zpsu4ahkld"><path d="M218,259H79.33a2.16,2.16,0,0,1-2.17-2.16h0a2.17,2.17,0,0,1,2.17-2.16H218a2.16,2.16,0,0,1,2.16,2.16h0A2.15,2.15,0,0,1,218,259Z" style="fill: rgb(255, 255, 255); opacity: 0.3; isolation: isolate; transform-origin: 148.66px 256.84px;" class="animable"></path></g><g id="el3sh7ttzliuq"><rect x="86.35" y="265.65" width="56.69" height="149.41" style="fill: rgb(38, 50, 56); transform-origin: 114.695px 340.355px; transform: rotate(180deg);" class="animable"></rect></g><g id="el0t6fp5bhud"><rect x="86.35" y="265.65" width="56.69" height="149.41" style="fill: rgb(255, 255, 255); opacity: 0.2; isolation: isolate; transform-origin: 114.695px 340.355px; transform: rotate(180deg);" class="animable"></rect></g><rect x="143.04" y="265.65" width="116.54" height="149.41" style="fill: rgb(38, 50, 56); transform-origin: 201.31px 340.355px;" id="eldf2xzg2u4mh" class="animable"></rect><g id="el77vlr4sh78c"><rect x="143.04" y="265.65" width="116.54" height="149.41" style="fill: rgb(255, 255, 255); opacity: 0.39; isolation: isolate; transform-origin: 201.31px 340.355px;" class="animable"></rect></g><path d="M140.66,258H261.74a0,0,0,0,1,0,0v5.51a2.16,2.16,0,0,1-2.16,2.16H142.82a2.16,2.16,0,0,1-2.16-2.16V258A0,0,0,0,1,140.66,258Z" style="fill: rgb(38, 50, 56); transform-origin: 201.2px 261.835px;" id="el5qr0gsvpbzu" class="animable"></path><g id="eltemylkm5x1i"><path d="M140.66,258H261.74a0,0,0,0,1,0,0v5.51a2.16,2.16,0,0,1-2.16,2.16H142.82a2.16,2.16,0,0,1-2.16-2.16V258A0,0,0,0,1,140.66,258Z" style="fill: rgb(255, 255, 255); opacity: 0.6; isolation: isolate; transform-origin: 201.2px 261.835px;" class="animable"></path></g><g id="elog1b1fj0ojk"><rect x="140.66" y="257.97" width="121.08" height="3.84" style="opacity: 0.2; isolation: isolate; transform-origin: 201.2px 259.89px;" class="animable"></rect></g><path d="M265.54,259H136.86a2.16,2.16,0,0,1-2.16-2.16h0a2.16,2.16,0,0,1,2.16-2.16H265.54a2.16,2.16,0,0,1,2.16,2.16h0A2.16,2.16,0,0,1,265.54,259Z" style="fill: rgb(38, 50, 56); transform-origin: 201.2px 256.84px;" id="elcsjg0ip2sj" class="animable"></path><g id="el5cp3fmtvlcm"><path d="M265.54,259H136.86a2.16,2.16,0,0,1-2.16-2.16h0a2.16,2.16,0,0,1,2.16-2.16H265.54a2.16,2.16,0,0,1,2.16,2.16h0A2.16,2.16,0,0,1,265.54,259Z" style="fill: rgb(255, 255, 255); opacity: 0.6; isolation: isolate; transform-origin: 201.2px 256.84px;" class="animable"></path></g><g id="eloo7avk3p0df"><g style="opacity: 0.3; isolation: isolate; transform-origin: 201.2px 338.06px;" class="animable"><path d="M237.74,398.38H164.66V277.74h73.08Zm-66.63-6.45h60.18V284.19H171.11Z" style="fill: rgb(255, 255, 255); transform-origin: 201.2px 338.06px;" id="elmgzsy4ntk4m" class="animable"></path><rect x="182.39" y="297.92" width="37.62" height="80.28" style="fill: rgb(255, 255, 255); transform-origin: 201.2px 338.06px;" id="el939zh7rg4we" class="animable"></rect></g></g></g><g id="freepik--police-badges--inject-1" class="animable" style="transform-origin: 242.135px 223.05px;"><rect x="203.9" y="203.92" width="51.28" height="38.26" rx="3.84" style="fill: rgb(220, 114, 116); transform-origin: 229.54px 223.05px;" id="el71npyrvo3mw" class="animable"></rect><path d="M248.46,219.18s14.28,10.27,31.91-3.56c0,0-16,22.83-37.26,11.88Z" style="fill: rgb(220, 114, 116); fill-rule: evenodd; transform-origin: 261.74px 223.046px;" id="elc40g5rwgz9b" class="animable"></path><g id="el99vngxgdqkt"><rect x="214.41" y="201.4" width="30.26" height="43.28" style="fill: rgb(255, 255, 255); opacity: 0.39; isolation: isolate; transform-origin: 229.54px 223.04px; transform: rotate(90deg);" class="animable"></rect></g><path d="M228.84,235.56a12.62,12.62,0,0,0-3.66-2.25,9.5,9.5,0,0,1-6.36-8.22,7.78,7.78,0,0,1,.77-4.21c.31-.62.72-1.16,1.07-1.75a3.57,3.57,0,0,0,0-3.63c-.12-.19-.27-.38-.38-.58a1.38,1.38,0,0,1,0-1.45,1.87,1.87,0,0,1,.29-.34l1.17-1.14a1.91,1.91,0,0,1,.41-.33,1.46,1.46,0,0,1,1.22-.11c.14,0,.27.13.42.18a5.09,5.09,0,0,0,5.24-1.26.69.69,0,0,1,1,0,5,5,0,0,0,5.26,1.28c.15-.06.28-.13.42-.18a1.46,1.46,0,0,1,1.22.11,1.91,1.91,0,0,1,.41.33l1.17,1.14a1.87,1.87,0,0,1,.29.34,1.38,1.38,0,0,1,0,1.45c-.11.2-.26.39-.38.58a3.57,3.57,0,0,0,0,3.63c.34.59.76,1.13,1.06,1.75a7.78,7.78,0,0,1,.77,4.21,9.5,9.5,0,0,1-6.36,8.22,12.89,12.89,0,0,0-3.63,2.22,1,1,0,0,1-1.43,0Z" style="fill: rgb(220, 114, 116); fill-rule: evenodd; transform-origin: 229.535px 223.053px;" id="elc6d10m25b8" class="animable"></path><g id="elibs1qfu6j79"><path d="M228.84,235.56a12.62,12.62,0,0,0-3.66-2.25,9.5,9.5,0,0,1-6.36-8.22,7.78,7.78,0,0,1,.77-4.21c.31-.62.72-1.16,1.07-1.75a3.57,3.57,0,0,0,0-3.63c-.12-.19-.27-.38-.38-.58a1.38,1.38,0,0,1,0-1.45,1.87,1.87,0,0,1,.29-.34l1.17-1.14a1.91,1.91,0,0,1,.41-.33,1.46,1.46,0,0,1,1.22-.11c.14,0,.27.13.42.18a5.09,5.09,0,0,0,5.24-1.26.69.69,0,0,1,1,0,5,5,0,0,0,5.26,1.28c.15-.06.28-.13.42-.18a1.46,1.46,0,0,1,1.22.11,1.91,1.91,0,0,1,.41.33l1.17,1.14a1.87,1.87,0,0,1,.29.34,1.38,1.38,0,0,1,0,1.45c-.11.2-.26.39-.38.58a3.57,3.57,0,0,0,0,3.63c.34.59.76,1.13,1.06,1.75a7.78,7.78,0,0,1,.77,4.21,9.5,9.5,0,0,1-6.36,8.22,12.89,12.89,0,0,0-3.63,2.22,1,1,0,0,1-1.43,0Z" style="fill-rule: evenodd; opacity: 0.3; transform-origin: 229.535px 223.053px;" class="animable"></path></g><g id="elopurf6hxzo"><path d="M229.54,232a15.88,15.88,0,0,1,1.46-.84c.81-.42,1.67-.74,2.48-1.16a6.71,6.71,0,0,0,2.45-2.06,5.87,5.87,0,0,0,.83-1.66,6,6,0,0,0,.23-2.85,6.52,6.52,0,0,0-1-2.15,7.92,7.92,0,0,1-1.23-3,6.73,6.73,0,0,1,.34-3.3,8.27,8.27,0,0,1-1,.12,8.52,8.52,0,0,1-4.59-1.09,8.86,8.86,0,0,1-1.48.65A8.57,8.57,0,0,1,224,215a6.7,6.7,0,0,1,.23,3.84,8.34,8.34,0,0,1-1.09,2.36,6.18,6.18,0,0,0-1.06,2.67,6.1,6.1,0,0,0,.71,3.45,6.34,6.34,0,0,0,1.71,2,10,10,0,0,0,1.79,1c.6.27,1.21.56,1.84.88s1,.53,1.44.83Z" style="fill-rule: evenodd; opacity: 0.3; transform-origin: 229.561px 223.02px;" class="animable"></path></g><g id="ellk33ro2ymc"><path d="M231.55,232.21c-.24.12-.47.25-.7.39a2.56,2.56,0,0,1-2.62,0c-.23-.13-.45-.26-.69-.38-.56-.29-1.18-.58-1.79-.86a10.53,10.53,0,0,1-2-1.11,7.4,7.4,0,0,1-2-2.38,4.83,4.83,0,0,1-.27-.56,7.33,7.33,0,0,1-.57-3.52,7.41,7.41,0,0,1,1.22-3.15,7.58,7.58,0,0,0,1-2,5.49,5.49,0,0,0-.1-2.9,5.41,5.41,0,0,0-.44-1h0l-.21-.38.71-.69.34.11a7.12,7.12,0,0,0,4.33-.08,7.59,7.59,0,0,0,.83-.34,2.51,2.51,0,0,1,2.14,0,7.19,7.19,0,0,0,3.42.69,7.79,7.79,0,0,0,2-.41l.7.69a8.44,8.44,0,0,0-.65,1.4,5.62,5.62,0,0,0-.19,2.48,6.64,6.64,0,0,0,1.08,2.58,7.46,7.46,0,0,1,1.12,2.54,7.1,7.1,0,0,1-.26,3.39,7.4,7.4,0,0,1-1,2,8.08,8.08,0,0,1-2.88,2.43c-.81.41-1.67.73-2.48,1.15Z" style="fill-rule: evenodd; opacity: 0.5; transform-origin: 229.595px 223.041px;" class="animable"></path></g><path d="M229.54,219.53a4.32,4.32,0,1,1-4.32,4.32,4.32,4.32,0,0,1,4.32-4.32Z" style="fill: rgb(220, 114, 116); fill-rule: evenodd; transform-origin: 229.54px 223.85px;" id="elpq1lq4scowf" class="animable"></path><g id="elnzj7csmumhr"><path d="M229.54,219.53a4.32,4.32,0,1,1-4.32,4.32,4.32,4.32,0,0,1,4.32-4.32Z" style="fill-rule: evenodd; opacity: 0.5; transform-origin: 229.54px 223.85px;" class="animable"></path></g></g><g id="freepik--hammer-of-law--inject-1" class="animable" style="transform-origin: 417.905px 207.52px;"><rect x="400.27" y="185.7" width="58.49" height="43.64" rx="4.38" style="fill: rgb(220, 114, 116); transform-origin: 429.515px 207.52px;" id="eldj9mckv9por" class="animable"></rect><path d="M408.21,201.59s-9.81,14.6-31.16,7.77c0,0,22.95,15.83,39.07-1.83Z" style="fill: rgb(220, 114, 116); fill-rule: evenodd; transform-origin: 396.585px 208.737px;" id="elk43g33b5tb" class="animable"></path><g id="elxe2zx5lwicj"><rect x="411.7" y="182.27" width="35.64" height="50.5" rx="0.38" style="fill: rgb(255, 255, 255); opacity: 0.39; isolation: isolate; transform-origin: 429.52px 207.52px; transform: rotate(90deg);" class="animable"></rect></g><path d="M413.24,220.48h0a3.42,3.42,0,0,1-2.48-2.37l0-.15,15.16-15.16,2.52,2.52Z" style="fill: rgb(220, 114, 116); transform-origin: 419.6px 211.64px;" id="eljp5v0272ge" class="animable"></path><g id="elgy9h3g1oaxr"><path d="M413.24,220.48h0a3.42,3.42,0,0,1-2.48-2.37l0-.15,15.16-15.16,2.52,2.52Z" style="opacity: 0.5; transform-origin: 419.6px 211.64px;" class="animable"></path></g><g id="el68314b2p8q7"><rect x="424.82" y="201.96" width="4.5" height="4.33" style="fill: rgb(220, 114, 116); transform-origin: 427.07px 204.125px; transform: rotate(45deg);" class="animable"></rect></g><g id="el3k8nb9mvciv"><rect x="424.82" y="201.96" width="4.5" height="4.33" style="opacity: 0.7; transform-origin: 427.07px 204.125px; transform: rotate(45deg);" class="animable"></rect></g><g id="elr5kzjups1on"><rect x="423.09" y="197.76" width="13.54" height="7.15" style="fill: rgb(220, 114, 116); transform-origin: 429.86px 201.335px; transform: rotate(45deg);" class="animable"></rect></g><g id="el8bcvk29rwde"><rect x="423.09" y="197.76" width="13.54" height="7.15" style="opacity: 0.3; transform-origin: 429.86px 201.335px; transform: rotate(45deg);" class="animable"></rect></g><g id="elkodrytvovog"><rect x="422.98" y="192.08" width="4.12" height="8.84" rx="1" style="fill: rgb(220, 114, 116); transform-origin: 425.04px 196.5px; transform: rotate(45deg);" class="animable"></rect></g><g id="elyvvcsz8kuz"><rect x="432.63" y="201.74" width="4.12" height="8.84" rx="1" style="fill: rgb(220, 114, 116); transform-origin: 434.69px 206.16px; transform: rotate(45deg);" class="animable"></rect></g><g id="eln2yfsm1ymtk"><g style="opacity: 0.5; transform-origin: 429.865px 201.33px;" class="animable"><g id="elhaqfar12euf"><rect x="422.98" y="192.08" width="4.12" height="8.84" rx="1" class="animable" style="transform-origin: 425.04px 196.5px; transform: rotate(45deg);"></rect></g><g id="el3mihqbaxdys"><rect x="432.63" y="201.74" width="4.12" height="8.84" rx="1" class="animable" style="transform-origin: 434.69px 206.16px; transform: rotate(45deg);"></rect></g></g></g><path d="M430.18,213.12H443a1.24,1.24,0,0,1,1.24,1.24V218a0,0,0,0,1,0,0H428.94a0,0,0,0,1,0,0v-3.66A1.24,1.24,0,0,1,430.18,213.12Z" style="fill: rgb(220, 114, 116); transform-origin: 436.59px 215.56px;" id="el97zy4am1g9o" class="animable"></path><g id="elw5xxcey2ybk"><path d="M430.18,213.12H443a1.24,1.24,0,0,1,1.24,1.24V218a0,0,0,0,1,0,0H428.94a0,0,0,0,1,0,0v-3.66A1.24,1.24,0,0,1,430.18,213.12Z" style="opacity: 0.3; transform-origin: 436.59px 215.56px;" class="animable"></path></g><path d="M444.54,217.8H428.62a1.32,1.32,0,0,0-1.32,1.31h0a1.32,1.32,0,0,0,1.32,1.32h15.92a1.32,1.32,0,0,0,1.32-1.32h0A1.32,1.32,0,0,0,444.54,217.8Z" style="fill: rgb(220, 114, 116); transform-origin: 436.58px 219.115px;" id="el1vhbdc6mccr" class="animable"></path><g id="elxtx7w49zwn"><path d="M444.54,217.8H428.62a1.32,1.32,0,0,0-1.32,1.31h0a1.32,1.32,0,0,0,1.32,1.32h15.92a1.32,1.32,0,0,0,1.32-1.32h0A1.32,1.32,0,0,0,444.54,217.8Z" style="opacity: 0.5; transform-origin: 436.58px 219.115px;" class="animable"></path></g></g><g id="freepik--legal-balance--inject-1" class="animable animator-active" style="transform-origin: 206.835px 125.45px;"><rect x="163.67" y="88.65" width="79.05" height="58.97" rx="5.92" style="fill: rgb(220, 114, 116); transform-origin: 203.195px 118.135px;" id="elasd7tqdyiyd" class="animable"></rect><path d="M230.79,136.52S229.15,154,250,162.25c0,0-27.79-2.26-29.1-26.13Z" style="fill: rgb(220, 114, 116); fill-rule: evenodd; transform-origin: 235.45px 149.185px;" id="elo4y56nqg7es" class="animable"></path><g id="elw6xdfttokx9"><rect x="177.71" y="82.62" width="50.97" height="71.05" rx="1.92" style="fill: rgb(255, 255, 255); opacity: 0.39; isolation: isolate; transform-origin: 203.195px 118.145px; transform: rotate(90deg);" class="animable"></rect></g><path d="M194.7,119.28a6.08,6.08,0,0,1-11.35,0Z" style="fill: rgb(220, 114, 116); transform-origin: 189.025px 121.229px;" id="elrelh1omchm" class="animable"></path><g id="elo3fbnfvotom"><path d="M194.7,119.28a6.08,6.08,0,0,1-11.35,0Z" style="opacity: 0.5; transform-origin: 189.025px 121.229px;" class="animable"></path></g><path d="M194.7,118.48a.21.21,0,0,1-.18-.11L189,107.88l-5.5,10.49a.21.21,0,0,1-.28.09.21.21,0,0,1-.09-.28l5.68-10.83a.22.22,0,0,1,.37,0l5.68,10.83a.21.21,0,0,1-.09.28Z" style="fill: rgb(220, 114, 116); transform-origin: 188.995px 112.866px;" id="elpkt0qntjyrs" class="animable"></path><g id="eltjitjhkfbdp"><g style="opacity: 0.7; transform-origin: 188.995px 112.866px;" class="animable"><path d="M194.7,118.48a.21.21,0,0,1-.18-.11L189,107.88l-5.5,10.49a.21.21,0,0,1-.28.09.21.21,0,0,1-.09-.28l5.68-10.83a.22.22,0,0,1,.37,0l5.68,10.83a.21.21,0,0,1-.09.28Z" id="el3dd9ambyd9v" class="animable" style="transform-origin: 188.995px 112.866px;"></path></g></g><path d="M189,119a.2.2,0,0,1-.21-.2V107.44a.2.2,0,0,1,.21-.2.2.2,0,0,1,.2.2v11.34A.2.2,0,0,1,189,119Z" style="fill: rgb(220, 114, 116); transform-origin: 188.995px 113.12px;" id="eljbfas5ya6g" class="animable"></path><g id="elx3uunvjuogf"><g style="opacity: 0.7; transform-origin: 188.995px 113.12px;" class="animable"><path d="M189,119a.2.2,0,0,1-.21-.2V107.44a.2.2,0,0,1,.21-.2.2.2,0,0,1,.2.2v11.34A.2.2,0,0,1,189,119Z" id="elrk0ulfq08oc" class="animable" style="transform-origin: 188.995px 113.12px;"></path></g></g><rect x="182.54" y="118.27" width="12.98" height="1.01" style="fill: rgb(220, 114, 116); transform-origin: 189.03px 118.775px;" id="eldio5fqwu31p" class="animable"></rect><g id="elv1e3801fx9c"><rect x="182.54" y="118.27" width="12.98" height="1.01" style="opacity: 0.3; transform-origin: 189.03px 118.775px;" class="animable"></rect></g><path d="M222.8,119.28a6.09,6.09,0,0,1-11.36,0Z" style="fill: rgb(220, 114, 116); transform-origin: 217.12px 121.227px;" id="elv3zz0e7za5" class="animable"></path><g id="elbx3iovj2spw"><path d="M222.8,119.28a6.09,6.09,0,0,1-11.36,0Z" style="opacity: 0.5; transform-origin: 217.12px 121.227px;" class="animable"></path></g><path d="M222.8,118.48a.19.19,0,0,1-.18-.11l-5.5-10.49-5.5,10.49a.2.2,0,1,1-.36-.19l5.68-10.83a.21.21,0,0,1,.36,0L223,118.18a.21.21,0,0,1-.09.28Z" style="fill: rgb(220, 114, 116); transform-origin: 217.129px 112.864px;" id="elsn4n2ykn8yd" class="animable"></path><g id="el9sfs51r2k2n"><g style="opacity: 0.7; transform-origin: 217.129px 112.864px;" class="animable"><path d="M222.8,118.48a.19.19,0,0,1-.18-.11l-5.5-10.49-5.5,10.49a.2.2,0,1,1-.36-.19l5.68-10.83a.21.21,0,0,1,.36,0L223,118.18a.21.21,0,0,1-.09.28Z" id="elil1b5ny6ktb" class="animable" style="transform-origin: 217.129px 112.864px;"></path></g></g><path d="M217.12,119a.21.21,0,0,1-.21-.2V107.44a.21.21,0,0,1,.21-.2.2.2,0,0,1,.2.2v11.34A.2.2,0,0,1,217.12,119Z" style="fill: rgb(220, 114, 116); transform-origin: 217.115px 113.12px;" id="elpdqpqg8wik" class="animable"></path><g id="el0wf0fdohtncf"><g style="opacity: 0.7; transform-origin: 217.115px 113.12px;" class="animable"><path d="M217.12,119a.21.21,0,0,1-.21-.2V107.44a.21.21,0,0,1,.21-.2.2.2,0,0,1,.2.2v11.34A.2.2,0,0,1,217.12,119Z" id="elmhuu0xt7ri" class="animable" style="transform-origin: 217.115px 113.12px;"></path></g></g><rect x="210.63" y="118.27" width="12.98" height="1.01" style="fill: rgb(220, 114, 116); transform-origin: 217.12px 118.775px;" id="el978bqmlfsl" class="animable"></rect><g id="elh7texlbfy59"><rect x="210.63" y="118.27" width="12.98" height="1.01" style="opacity: 0.3; transform-origin: 217.12px 118.775px;" class="animable"></rect></g><path d="M203,104v2.09c-2.12,0-4.52,1.2-6.43,2.26a7.51,7.51,0,0,1-4.08.9,11.15,11.15,0,0,1-4.72-1.91v-1.17a8.78,8.78,0,0,0,4.63,1.62,7.48,7.48,0,0,0,4.17-1.54A13.9,13.9,0,0,1,203,104Z" style="fill: rgb(220, 114, 116); transform-origin: 195.385px 106.633px;" id="elosfbe4me5ho" class="animable"></path><g id="elx6i1gnlgcef"><path d="M203,104v2.09c-2.12,0-4.52,1.2-6.43,2.26a7.51,7.51,0,0,1-4.08.9,11.15,11.15,0,0,1-4.72-1.91v-1.17a8.78,8.78,0,0,0,4.63,1.62,7.48,7.48,0,0,0,4.17-1.54A13.9,13.9,0,0,1,203,104Z" style="opacity: 0.3; transform-origin: 195.385px 106.633px;" class="animable"></path></g><path d="M189,106.63a1.2,1.2,0,1,1-1.2-1.2A1.19,1.19,0,0,1,189,106.63Z" style="fill: rgb(220, 114, 116); transform-origin: 187.8px 106.63px;" id="el9dsbkl9cdu8" class="animable"></path><g id="el80c1s41a256"><path d="M189,106.63a1.2,1.2,0,1,1-1.2-1.2A1.19,1.19,0,0,1,189,106.63Z" style="opacity: 0.5; transform-origin: 187.8px 106.63px;" class="animable"></path></g><path d="M203,104v2.09c2.12,0,4.52,1.2,6.44,2.26a7.49,7.49,0,0,0,4.08.9,11.25,11.25,0,0,0,4.72-1.91v-1.17a8.84,8.84,0,0,1-4.64,1.62,7.45,7.45,0,0,1-4.16-1.54A14,14,0,0,0,203,104Z" style="fill: rgb(220, 114, 116); transform-origin: 210.62px 106.633px;" id="elckorj8daa9j" class="animable"></path><g id="elad7md5pdnlu"><path d="M203,104v2.09c2.12,0,4.52,1.2,6.44,2.26a7.49,7.49,0,0,0,4.08.9,11.25,11.25,0,0,0,4.72-1.91v-1.17a8.84,8.84,0,0,1-4.64,1.62,7.45,7.45,0,0,1-4.16-1.54A14,14,0,0,0,203,104Z" style="opacity: 0.3; transform-origin: 210.62px 106.633px;" class="animable"></path></g><path d="M217.12,106.63a1.19,1.19,0,1,0,1.19-1.2A1.19,1.19,0,0,0,217.12,106.63Z" style="fill: rgb(220, 114, 116); transform-origin: 218.31px 106.62px;" id="elughl4htuiab" class="animable"></path><g id="ely0pj2ft24ei"><path d="M217.12,106.63a1.19,1.19,0,1,0,1.19-1.2A1.19,1.19,0,0,0,217.12,106.63Z" style="opacity: 0.5; transform-origin: 218.31px 106.62px;" class="animable"></path></g><rect x="201.5" y="100.36" width="3.03" height="31" style="fill: rgb(220, 114, 116); transform-origin: 203.015px 115.86px;" id="el2lcub3k444z" class="animable"></rect><g id="el8p1bcj3mds7"><rect x="201.5" y="100.36" width="3.03" height="31" style="opacity: 0.7; transform-origin: 203.015px 115.86px;" class="animable"></rect></g><path d="M205.58,105.42a2.57,2.57,0,1,1-2.57-2.57A2.56,2.56,0,0,1,205.58,105.42Z" style="fill: rgb(220, 114, 116); transform-origin: 203.01px 105.42px;" id="elwhj4w6wy9hm" class="animable"></path><g id="elb4wxqul68df"><path d="M205.58,105.42a2.57,2.57,0,1,1-2.57-2.57A2.56,2.56,0,0,1,205.58,105.42Z" style="opacity: 0.5; transform-origin: 203.01px 105.42px;" class="animable"></path></g><path d="M205,98.55a2,2,0,1,1-2-2A2,2,0,0,1,205,98.55Z" style="fill: rgb(220, 114, 116); transform-origin: 203px 98.55px;" id="elqnl29pkxyjr" class="animable"></path><g id="els1jipvapwsr"><path d="M205,98.55a2,2,0,1,1-2-2A2,2,0,0,1,205,98.55Z" style="opacity: 0.5; transform-origin: 203px 98.55px;" class="animable"></path></g><path d="M211.32,136H194.7v-3.63a1,1,0,0,1,1-1h14.62a1,1,0,0,1,1,1Z" style="fill: rgb(220, 114, 116); transform-origin: 203.01px 133.685px;" id="el3rs45ehu1bs" class="animable"></path><g id="elnu5gvj27zfe"><path d="M211.32,136H194.7v-3.63a1,1,0,0,1,1-1h14.62a1,1,0,0,1,1,1Z" style="opacity: 0.3; transform-origin: 203.01px 133.685px;" class="animable"></path></g><path d="M216.37,139.43H189.66a1.72,1.72,0,0,1-1.72-1.72h0a1.72,1.72,0,0,1,1.72-1.72h26.71a1.72,1.72,0,0,1,1.72,1.72h0A1.72,1.72,0,0,1,216.37,139.43Z" style="fill: rgb(220, 114, 116); transform-origin: 203.015px 137.71px;" id="elie1qdfs5l3c" class="animable"></path><g id="el2xztl3388qv"><path d="M216.37,139.43H189.66a1.72,1.72,0,0,1-1.72-1.72h0a1.72,1.72,0,0,1,1.72-1.72h26.71a1.72,1.72,0,0,1,1.72,1.72h0A1.72,1.72,0,0,1,216.37,139.43Z" style="opacity: 0.5; transform-origin: 203.015px 137.71px;" class="animable"></path></g><rect x="194.7" y="132.55" width="16.62" height="1.13" style="fill: rgb(220, 114, 116); transform-origin: 203.01px 133.115px;" id="elv4j5670tn99" class="animable"></rect><g id="elzufiwimlwbi"><rect x="194.7" y="132.55" width="16.62" height="1.13" style="opacity: 0.5; transform-origin: 203.01px 133.115px;" class="animable"></rect></g><path d="M205.29,100.51a.84.84,0,0,1-.83.84h-2.89a.85.85,0,0,1-.84-.84h0a.84.84,0,0,1,.84-.83h2.89a.83.83,0,0,1,.83.83Z" style="fill: rgb(220, 114, 116); transform-origin: 203.01px 100.515px;" id="elrv07p9ewgs" class="animable"></path><g id="elz1f7ep7isce"><path d="M205.29,100.51a.84.84,0,0,1-.83.84h-2.89a.85.85,0,0,1-.84-.84h0a.84.84,0,0,1,.84-.83h2.89a.83.83,0,0,1,.83.83Z" style="opacity: 0.3; transform-origin: 203.01px 100.515px;" class="animable"></path></g></g><g id="freepik--Paper--inject-1" class="animable" style="transform-origin: 408.02px 123.19px;"><rect x="376.76" y="88.65" width="68.11" height="50.81" rx="5.1" style="fill: rgb(220, 114, 116); transform-origin: 410.815px 114.055px;" id="elotnfzjz2wmk" class="animable"></rect><path d="M390.38,132s1.65,17.52-19.21,25.73c0,0,27.79-2.26,29.1-26.13Z" style="fill: rgb(220, 114, 116); fill-rule: evenodd; transform-origin: 385.72px 144.665px;" id="elxqzk416c9lf" class="animable"></path><g id="elvf0nxwnt3tp"><rect x="389.41" y="84" width="42.81" height="60.11" rx="1.1" style="fill: rgb(255, 255, 255); opacity: 0.39; isolation: isolate; transform-origin: 410.815px 114.055px; transform: rotate(90deg);" class="animable"></rect></g><path d="M422.4,97h0a2.49,2.49,0,0,1,2.49,2.5v1.2h-6.81Z" style="fill: rgb(220, 114, 116); transform-origin: 421.485px 98.85px;" id="eleox4luwgkku" class="animable"></path><g id="elrddhx1vh0w"><path d="M422.4,97h0a2.49,2.49,0,0,1,2.49,2.5v1.2h-6.81Z" style="opacity: 0.7; transform-origin: 421.485px 98.85px;" class="animable"></path></g><path d="M423.49,130c4.91-9.74-4.92-24.07-1.09-33H401.53a3.82,3.82,0,0,0-3.8,3.5c-.81,9.07,6.62,21.55,1.58,30.12h23.07A1.23,1.23,0,0,0,423.49,130Z" style="fill: rgb(220, 114, 116); transform-origin: 411.282px 113.81px;" id="eleqehs2gdesl" class="animable"></path><g id="elgpmf6jctvyt"><path d="M423.49,130c4.91-9.74-4.92-24.07-1.09-33H401.53a3.82,3.82,0,0,0-3.8,3.5c-.81,9.07,6.62,21.55,1.58,30.12h23.07A1.23,1.23,0,0,0,423.49,130Z" style="opacity: 0.3; transform-origin: 411.282px 113.81px;" class="animable"></path></g><path d="M399.31,130.63h0a2.19,2.19,0,0,1-2.19-2.19v-.82h23.19v.82a2.19,2.19,0,0,0,2.19,2.19H399.31Z" style="fill: rgb(220, 114, 116); transform-origin: 409.81px 129.125px;" id="elz0u3s3staz" class="animable"></path><g id="ellez9s4qlc9q"><path d="M399.31,130.63h0a2.19,2.19,0,0,1-2.19-2.19v-.82h23.19v.82a2.19,2.19,0,0,0,2.19,2.19H399.31Z" style="opacity: 0.5; transform-origin: 409.81px 129.125px;" class="animable"></path></g><g id="el38t2flex1gf"><rect x="400.94" y="101.65" width="16.43" height="1.37" style="opacity: 0.3; transform-origin: 409.155px 102.335px;" class="animable"></rect></g><g id="el8snt0f67btl"><rect x="401.71" y="106.49" width="16.43" height="1.37" style="opacity: 0.3; transform-origin: 409.925px 107.175px;" class="animable"></rect></g><g id="elwqztpzj312"><rect x="402.6" y="110.15" width="16.43" height="1.37" style="opacity: 0.3; transform-origin: 410.815px 110.835px;" class="animable"></rect></g><g id="el62qdq4rib57"><rect x="403.48" y="113.82" width="16.43" height="1.37" style="opacity: 0.3; transform-origin: 411.695px 114.505px;" class="animable"></rect></g><g id="ely1ltxxo2gu"><circle cx="418.08" cy="122.22" r="2.53" style="opacity: 0.3; transform-origin: 418.08px 122.22px;" class="animable"></circle></g></g><defs>     <filter id="active" height="200%">         <feMorphology in="SourceAlpha" result="DILATED" operator="dilate" radius="2"></feMorphology>                <feFlood flood-color="#32DFEC" flood-opacity="1" result="PINK"></feFlood>        <feComposite in="PINK" in2="DILATED" operator="in" result="OUTLINE"></feComposite>        <feMerge>            <feMergeNode in="OUTLINE"></feMergeNode>            <feMergeNode in="SourceGraphic"></feMergeNode>        </feMerge>    </filter>    <filter id="hover" height="200%">        <feMorphology in="SourceAlpha" result="DILATED" operator="dilate" radius="2"></feMorphology>                <feFlood flood-color="#ff0000" flood-opacity="0.5" result="PINK"></feFlood>        <feComposite in="PINK" in2="DILATED" operator="in" result="OUTLINE"></feComposite>        <feMerge>            <feMergeNode in="OUTLINE"></feMergeNode>            <feMergeNode in="SourceGraphic"></feMergeNode>        </feMerge>            <feColorMatrix type="matrix" values="0   0   0   0   0                0   1   0   0   0                0   0   0   0   0                0   0   0   1   0 "></feColorMatrix>    </filter></defs></svg>